# xmcd CD database file
#
# Track frame offsets:
#	150
#	18450
#	36150
#	54450
#	83288
#
# Disc length: 1298 seconds
#
# Revision: 0
# Processed by: cddbd v1.5PL3 Copyright (c) Steve Scherf et al.
# Submitted via: CDex 1.51
#
DISCID=2e051005
DTITLE=Aya and Chika from D&D - Rise in my heart
DYEAR=1999
DGENRE=JPop
TTITLE0=Rise in my heart
TTITLE1=Waitin' for heaven
TTITLE2=Rise in my heart (ORIGINAL KARAOKE)
TTITLE3=Waitin' for heaven (ORIGINAL KARAOKE)
TTITLE4=CD-EXTRA
EXTD=YEAR: 1999
EXTT0=
EXTT1=
EXTT2=
EXTT3=
EXTT4=
PLAYORDER=
